# xmcd
#
# Track frame offsets:
#	150
#	17857
#	33985
#	46285
#	63085
#	80257
#	93385
#	112060
#	131107
#	145285
#	159682
#	175210
#	191335
#	211732
#	228460
#	249760
#
# Disc length: 3580 seconds
#
# Revision: 0
# Processed by: cddbd v1.5.2PL0 Copyright (c) Steve Scherf et al.
# Submitted via: audiograbber 1.83.01
#
DISCID=d20dfa10
DTITLE=AMERICAN AND JAMES TAYLOR - LEGEND
DYEAR=1900
DGENRE=
TTITLE0=HORSE WITH NO NAME
TTITLE1=SISTER GOLDEN HAIR
TTITLE2=LONELY PEOPLE
TTITLE3=TIN MAN
TTITLE4=VENTURA
TTITLE5=I NEED YOU
TTITLE6=YOU CAN DO MAGIC
TTITLE7=SANDMAN
TTITLE8=SWEET BABY JAMES
TTITLE9=STEAMROLLER
TTITLE10=FIRE N RAIN
TTITLE11=HANDYMAN
TTITLE12=UP ON THE ROOF
TTITLE13=HOW SWEET IT IS
TTITLE14=YOU GOT A FRIEND
TTITLE15=MOKINGBIRD
EXTD=
EXTT0=
EXTT1=
EXTT2=
EXTT3=
EXTT4=
EXTT5=
EXTT6=
EXTT7=
EXTT8=
EXTT9=
EXTT10=
EXTT11=
EXTT12=
EXTT13=
EXTT14=
EXTT15=
PLAYORDER=
